<?xml version="1.0" encoding="UTF-8" standalone="no"?>
<svg
   version="1.1"
   viewBox="0 0 677 640"
   width="677"
   height="640"
   id="svg119"
   sodipodi:docname="koSTITCH Logo 0.6.svg"
   inkscape:version="1.4.3 (0d15f750, 2025-12-25)"
   xmlns:inkscape="http://www.inkscape.org/namespaces/inkscape"
   xmlns:sodipodi="http://sodipodi.sourceforge.net/DTD/sodipodi-0.dtd"
   xmlns="http://www.w3.org/2000/svg"
   xmlns:svg="http://www.w3.org/2000/svg">
  <defs
     id="defs119" />
  <sodipodi:namedview
     id="namedview119"
     pagecolor="#ffffff"
     bordercolor="#000000"
     borderopacity="0.25"
     inkscape:showpageshadow="2"
     inkscape:pageopacity="0.0"
     inkscape:pagecheckerboard="0"
     inkscape:deskcolor="#d1d1d1"
     showgrid="false"
     inkscape:zoom="0.42317708"
     inkscape:cx="337.92"
     inkscape:cy="340.28308"
     inkscape:window-width="1114"
     inkscape:window-height="763"
     inkscape:window-x="0"
     inkscape:window-y="0"
     inkscape:window-maximized="0"
     inkscape:current-layer="svg119" />
  <path
     d="m 400,99 h 36 l 5,2 1,1 v 11 l -6,3 v 52 h 67 l 17,3 8,4 7,8 2,11 v 14 h 16 l 5,4 1,3 v 45 l -2,5 -4,3 -17,1 v 135 l -1,1 -417,1 -1,3 h 441 l -1,-2 -15,-2 -1,-2 1,-13 h 10 l 12,6 8,7 5,10 1,4 v 21 H 101 v -29 l 3,-7 4,-6 9,-8 16,-8 13,-3 32,-1 -1,-37 -7,-2 -1,-3 v -13 l 1,-1 h 23 v 11 l -2,7 h -6 v 29 h -2 v 9 h 213 l 4,-4 -2,-1 -9,-1 2,-6 6,-15 4,-16 2,-11 v -23 l -2,-11 -6,-12 -6,-5 -9,-4 -10,-2 -11,-1 -80,-4 h -36 l -9,4 -6,7 -6,12 -7,19 -5,10 -4,3 h -54 l -6,-7 -6,-19 -4,-19 -4,-33 -1,-16 v -28 l 2,-11 6,-9 7,-4 11,-2 14,-1 1,-10 1,-1 h 13 l 1,1 v 11 h 13 l 15,3 18,8 10,4 9,2 h 38 l 23,-2 85,-10 -3,-2 -1,-5 4,-4 2,-1 v -8 l 1,-4 -1,-5 v -25 l 1,-3 -9,-1 -1,-1 v -9 l 4,-4 z m -209,79 1,7 16,6 14,7 15,4 7,1 h 33 l 16,-2 26,-2 90,-8 62,-5 6,-1 v -1 h -21 l -65,4 -83,7 -15,1 h -41 l -20,-5 -12,-5 -13,-6 -9,-2 z m 290,24 -11,4 -6,7 -3,7 v 12 l 5,10 8,7 7,2 h 11 l 9,-3 5,-5 5,-8 1,-4 v -9 l -3,-9 -6,-7 -10,-4 z m -283,30 -5,2 v 2 h -2 v 17 l 4,2 h 8 l 6,-3 3,-4 1,-8 -3,-6 -3,-2 z m 28,152 -41,1 -6,7 v 2 l 31,-3 27,-5 3,-2 z"
     fill="#fd2132"
     id="path1" />
  <path
     d="m 325,0 h 24 l 29,2 36,6 23,6 29,10 25,11 20,11 18,11 14,10 5,6 v 2 L 538,74 521,66 499,54 473,42 458,36 429,27 402,21 373,17 359,16 h -37 l -26,2 -29,5 -19,4 -26,8 -27,11 -16,8 -15,8 -22,14 -11,9 -14,11 -15,14 -10,10 -18,22 -15,23 -10,18 -10,22 -9,25 -6,23 -5,30 -1,13 v 41 l 3,27 6,29 8,26 7,17 11,23 11,18 10,14 8,10 12,14 22,22 11,9 15,12 15,10 20,12 24,12 29,11 23,7 23,5 31,4 15,1 h 37 l 22,-2 25,-4 32,-8 29,-10 20,-9 21,-11 19,-12 14,-10 14,-11 12,-11 8,-7 8,-8 7,-8 12,-15 14,-21 10,-18 10,-21 9,-25 5,-18 5,-25 2,-17 1,-17 v -18 l -2,-32 -4,-24 -7,-27 -8,-22 -9,-21 -1,-4 16,-3 7,14 10,25 8,27 4,18 3,20 2,27 v 24 l -2,25 -4,25 -8,30 -10,27 -8,18 -11,20 -7,11 -10,14 -9,12 -10,11 -7,8 -10,10 h -2 l -1,3 -11,9 -12,10 -20,14 -22,13 -24,12 -27,11 -25,8 -25,6 -33,5 -27,2 h -32 l -25,-2 -30,-5 -24,-6 L 208,616 185,606 157,591 138,579 119,565 105,553 95,544 80,529 73,521 62,508 53,495 41,476 31,458 20,433 11,406 5,381 1,354 0,343 v -49 l 2,-20 4,-23 5,-20 8,-24 11,-25 10,-19 13,-20 14,-19 14,-15 10,-11 8,-7 12,-11 16,-12 15,-10 13,-8 18,-10 16,-8 19,-8 24,-8 21,-6 26,-5 21,-3 z"
     fill="#fd2435"
     id="path2" />
  <path
     d="m 245,237 h 159 l 12,3 8,5 7,8 5,12 3,16 2,19 2,40 v 22 l -2,22 -3,7 -1,1 h -19 l 4,-18 4,-21 2,-20 v -31 l -1,-25 -3,-16 -4,-9 -5,-6 -8,-3 H 238 l -7,1 3,-3 z"
     fill="#fefdfc"
     id="path3" />
  <path
     d="m 601,43 h 7 l 6,5 1,6 -3,9 -7,10 -9,10 -13,13 h -2 v 2 h -2 v 2 l -11,9 -6,6 h -2 v 2 l -8,7 -20,20 h -3 l -1,-2 -1,-19 3,-5 14,-15 7,-7 2,-4 -15,-3 -16,-6 -20,-9 -6,-4 1,-3 6,1 24,11 15,5 8,2 h 7 l 2,-4 11,-13 7,-8 11,-11 10,-6 z m -4,14 -8,6 -9,10 -10,13 -1,4 -3,1 -1,4 5,-3 11,-9 10,-9 8,-11 1,-6 z"
     fill="#fd3141"
     id="path4" />
  <path
     d="m 493,461 19,1 -1,13 -1,7 h 26 l 2,-18 3,-3 18,1 -6,42 -2,12 -5,1 h -15 l 1,-12 1,-9 h -24 l -3,20 -1,1 h -20 l 1,-12 6,-43 z"
     fill="#fd1729"
     id="path5" />
  <path
     d="m 235,461 h 41 l 4,1 -1,12 -3,1 -31,-1 -6,1 1,4 23,2 10,3 6,5 2,9 -2,9 -5,5 -4,3 -12,2 h -29 l -10,-1 -2,-2 1,-9 1,-1 h 37 l 4,-1 -1,-5 -4,-2 -25,-3 -7,-3 -4,-4 -1,-3 v -10 l 5,-7 8,-4 z"
     fill="#fd3e4d"
     id="path6" />
  <path
     d="m 494,114 h 16 l 9,4 4,5 2,4 v 38 h -20 l -1,-1 v -37 l -4,1 -1,34 h -32 l 1,-6 4,-12 -11,4 -12,3 h -4 l -1,-3 2,-4 28,-7 7,-14 8,-7 z"
     fill="#fd3242"
     id="path7" />
  <path
     d="m 450,461 h 35 l 1,4 -1,9 -1,1 h -26 l -9,3 -5,6 -1,3 v 11 l 4,5 3,1 h 31 l -1,10 -1,2 -5,1 h -30 l -10,-2 -7,-4 -4,-5 -3,-8 v -9 l 3,-9 6,-9 8,-6 8,-3 z"
     fill="#fd3c4b"
     id="path8" />
  <path
     d="m 127,461 19,1 -3,26 8,-7 1,-1 10,-1 10,1 -5,6 -12,9 2,5 11,14 v 2 h -16 l -11,-14 -1,-1 -3,15 h -18 l 1,-13 6,-41 z"
     fill="#fd2838"
     id="path9" />
  <path
     d="m 369,462 h 58 v 7 l -2,6 h -18 l -6,41 -5,1 h -15 l -1,-3 5,-35 1,-4 h -18 z"
     fill="#fd1729"
     id="path10" />
  <path
     d="m 287,461 54,1 -1,12 -1,1 h -17 l -1,12 -4,27 -1,3 h -13 l -7,-2 5,-38 1,-2 h -17 v -8 z"
     fill="#fd3e4d"
     id="path11" />
  <path
     d="m 593,94 12,2 16,6 12,7 12,9 10,11 6,12 2,8 -1,11 -4,8 -5,6 -10,5 h -16 l -12,-5 -13,-9 v -2 l -4,-2 -12,-13 -9,-11 -5,-7 v -3 l 4,2 5,5 16,17 8,8 10,7 10,4 4,1 h 9 l 9,-4 5,-6 2,-5 v -10 l -3,-9 -9,-12 -10,-8 -13,-8 -18,-7 -9,-3 -2,-3 z"
     fill="#fd3040"
     id="path12" />
  <path
     d="m 190,478 h 7 l 10,3 5,3 4,8 v 7 l -3,8 -7,6 -7,3 -4,1 h -10 l -8,-2 -8,-6 -2,-5 v -10 l 4,-8 9,-6 z m -1,10 -5,3 -2,3 v 9 l 4,3 h 9 l 4,-2 2,-4 v -8 l -2,-3 -3,-1 z"
     fill="#fd4150"
     id="path13" />
  <path
     d="m 346,462 h 20 l -3,26 -5,29 h -19 l -1,-3 6,-43 1,-8 z"
     fill="#fd1729"
     id="path14" />
  <path
     d="m 552,266 2,1 -1,1 -17,1 v 135 l -1,1 -417,1 -2,3 -2,-4 7,-2 413,-1 1,-135 z"
     fill="#feeced"
     id="path15" />
  <path
     d="m 483,209 9,1 6,4 5,6 1,8 -2,8 -5,6 -8,3 -9,-1 -6,-4 -4,-6 -1,-3 v -10 l 5,-8 5,-3 z"
     fill="#fd3444"
     id="path16" />
  <path
     d="m 393,145 h 2 l 2,9 -10,4 -33,10 -28,6 -27,4 -29,2 h -30 l -3,-2 1,-1 36,-2 40,-5 30,-7 17,-5 28,-11 z"
     fill="#fd4553"
     id="path17" />
  <path
     d="m 424,306 h 1 v 12 l -3,20 -5,17 -6,12 -8,11 -7,7 -11,7 -9,3 -3,-1 11,-7 9,-7 1,-2 H 183 v -2 h 213 l 4,-4 -2,-1 -9,-1 2,-6 6,-15 2,-6 1,4 -6,16 -3,6 5,-2 7,-7 8,-13 6,-14 4,-13 z"
     fill="#fdf7f7"
     id="path18" />
  <path
     d="m 400,99 h 36 l 5,2 1,1 v 11 l -6,3 h -35 l -9,-2 -1,-1 v -9 l 4,-4 z"
     fill="#fd2d3d"
     id="path19" />
  <path
     d="m 186,177 h 13 l 8,2 -4,1 -12,-2 1,7 3,1 h -2 v 43 l -1,3 4,-1 h 12 l 3,2 -1,2 -3,-2 h -9 l -5,1 v 2 h -2 v 19 l -1,32 -1,15 h -1 l -2,-23 -1,-32 v -69 z"
     fill="#fefafa"
     id="path20" />
  <path
     d="m 164,176 h 9 v 128 h -1 l -3,-21 -3,-37 -2,-38 z"
     fill="#fefcfb"
     id="path21" />
  <path
     d="m 582,110 h 6 l 12,7 10,11 10,14 9,14 2,5 -3,1 -14,-8 -9,-9 -9,-13 -11,-13 -5,-8 z"
     fill="#fd2f40"
     id="path22" />
  <path
     d="m 36,404 h 30 l -1,7 -14,14 h -2 v 2 l -5,1 -5,-15 z"
     fill="#fd3a49"
     id="path23" />
  <path
     d="m 493,461 19,1 -1,13 -1,7 h 26 l 2,-18 3,-3 18,1 -6,42 -2,12 -5,1 h -15 l 1,-12 1,-9 h -24 l -3,20 -1,1 h -20 l 1,-12 6,-43 z m 0,2 -7,52 h 18 l 1,-1 2,-14 v -6 h 28 l -3,22 18,-1 7,-47 v -5 h -17 l -2,10 -1,10 h -28 l 2,-20 z"
     fill="#feeff0"
     id="path24" />
  <path
     d="m 435,117 h 1 v 44 l -1,3 h -32 l -7,-1 4,-3 v -8 l 1,-4 -1,-5 v -18 l 2,-2 v 2 h 24 l -1,2 h -23 v 10 h 24 l 1,2 h -24 l -1,8 h 25 v 2 l -24,1 -1,10 h 33 z"
     fill="#feeef0"
     id="path25" />
  <path
     d="m 369,462 h 58 v 7 l -2,6 h -18 l -6,41 -5,1 h -15 l -1,-3 5,-35 1,-4 h -18 z m 1,1 -1,10 h 18 l -5,36 v 6 h 18 l 6,-41 19,-1 1,-10 z"
     fill="#feebec"
     id="path26" />
  <path
     d="m 190,228 h 1 l 1,6 1,2 h -2 v 19 l -1,32 -1,15 h -1 l -2,-23 v -42 l 2,-4 v 2 h 2 z"
     fill="#fefefd"
     id="path27" />
  <path
     d="m 346,462 h 20 l -3,26 -5,29 h -19 l -1,-3 6,-43 1,-8 z m 1,1 -2,10 -5,37 v 5 h 17 l 6,-36 2,-16 z"
     fill="#fef2f2"
     id="path28" />
  <path
     d="m 435,117 h 1 v 44 l -1,3 h -32 l -7,-1 2,-2 5,-1 h 32 z"
     fill="#fef9f9"
     id="path29" />
  <path
     d="m 127,461 19,1 -3,23 v 6 l -3,1 2,-16 2,-13 h -17 v 8 l -6,41 -1,3 h 16 l 1,-12 1,-5 h 1 l -1,13 -1,5 h -18 l 1,-13 6,-41 z"
     fill="#fef2f3"
     id="path30" />
  <path
     d="m 386,474 h 1 l -1,13 -4,28 h 18 l 1,-13 4,-27 h 1 v 8 l -5,33 -5,1 h -15 l -1,-3 z"
     fill="#fef2f2"
     id="path31" />
  <path
     d="m 392,113 h 49 l -2,2 -3,1 h -35 l -9,-2 z"
     fill="#fef5f5"
     id="path32" />
  <path
     d="m 170,263 2,1 1,5 v 35 h -1 l -3,-21 -1,-15 z"
     fill="#fef8f8"
     id="path33" />
  <path
     d="m 186,177 h 13 l 8,2 -4,1 -12,-2 1,7 -1,1 v 5 l -1,-3 -5,2 v -12 z"
     fill="#fee9eb"
     id="path34" />
  <path
     d="m 190,228 h 1 l 1,6 1,2 h -2 v 19 l -1,-3 h -3 v -19 l 1,2 h 2 z"
     fill="#feeaec"
     id="path35" />
  <path
     d="m 39,374 h 2 l 4,11 1,7 h -4 l -3,-8 -1,-9 z"
     fill="#fd2435"
     id="path36" />
  <path
     d="m 188,263 h 1 l 1,14 -1,25 h -1 l -2,-23 v -13 z"
     fill="#fef3f3"
     id="path37" />
  <path
     d="m 342,487 h 1 v 8 l -3,20 h 17 l 1,-4 1,2 -1,4 h -19 l -1,-3 z"
     fill="#feeff0"
     id="path38" />
  <path
     d="m 35,347 2,1 2,11 v 6 l -3,2 -2,-4 -1,-15 z"
     fill="#fd2c3d"
     id="path39" />
  <path
     d="m 40,245 h 3 l -1,10 -3,8 -3,1 -1,-4 4,-13 z"
     fill="#fd2738"
     id="path40" />
  <path
     d="m 110,117 h 3 l -1,5 -8,9 -4,-1 3,-6 z"
     fill="#fd2233"
     id="path41" />
  <path
     d="m 127,461 19,1 -3,23 v 6 l -3,1 2,-16 2,-13 h -17 v 8 l -2,-1 1,-8 z"
     fill="#feebed"
     id="path42" />
  <path
     d="m 48,221 2,1 -1,9 -3,7 h -3 l -1,-3 4,-12 z"
     fill="#fd2233"
     id="path43" />
  <path
     d="m 32,321 3,1 1,15 -1,2 h -3 l -1,-5 v -12 z"
     fill="#fd2e3e"
     id="path44" />
  <path
     d="m 36,270 2,1 -1,15 -1,2 h -3 l -1,-5 1,-9 z"
     fill="#fd1f31"
     id="path45" />
  <path
     d="m 66,450 3,1 7,12 -1,4 h -2 l -6,-9 -2,-7 z"
     fill="#fd1f31"
     id="path46" />
  <path
     d="m 615,193 4,2 4,6 2,5 v 4 l -4,-1 -4,-8 z"
     fill="#fd2939"
     id="path47" />
  <path
     d="m 412,597 h 4 l 1,3 -2,2 -9,2 h -4 l -1,-4 z"
     fill="#fd1a2b"
     id="path48" />
  <path
     d="m 642,354 2,1 v 12 l -3,5 -2,-1 v -9 l 2,-7 z"
     fill="#fd2334"
     id="path49" />
  <path
     d="m 95,136 1,4 -8,11 -3,1 v -5 l 8,-10 z"
     fill="#fd2031"
     id="path50" />
  <path
     d="m 167,558 6,1 9,6 v 2 h -6 l -9,-6 z"
     fill="#fd2031"
     id="path51" />
  <path
     d="m 638,378 h 2 l 1,4 -4,13 h -3 l 1,-11 2,-5 z"
     fill="#fd2334"
     id="path52" />
  <path
     d="m 633,239 h 3 l 3,10 v 5 l -3,1 -3,-7 -1,-8 z"
     fill="#fd2637"
     id="path53" />
  <path
     d="m 56,199 h 3 l -1,6 -5,10 -3,-1 1,-6 4,-8 z"
     fill="#fd1d2e"
     id="path54" />
  <path
     d="m 159,78 h 4 v 3 l -10,7 h -4 l 1,-4 z"
     fill="#fd2031"
     id="path55" />
  <path
     d="m 436,591 4,1 -2,4 -6,2 h -8 l 1,-3 z"
     fill="#fd1d2e"
     id="path56" />
  <path
     d="m 624,424 h 2 l 1,3 -6,12 -3,1 1,-8 z"
     fill="#fd2334"
     id="path57" />
  <path
     d="m 639,261 3,2 2,8 v 5 l -4,1 -2,-8 v -7 z"
     fill="#fd2334"
     id="path58" />
  <path
     d="m 196,57 h 5 l -1,4 -10,5 -3,-1 1,-4 z"
     fill="#fd2334"
     id="path59" />
  <path
     d="m 483,572 2,1 -1,4 -10,5 h -4 v -3 z"
     fill="#fd1d2f"
     id="path60" />
  <path
     d="m 95,494 4,2 7,8 -1,3 -4,-1 -7,-9 z"
     fill="#fd1a2c"
     id="path61" />
  <path
     d="m 79,472 h 3 l 7,11 -1,3 -4,-2 -5,-7 z"
     fill="#fd1d2f"
     id="path62" />
  <path
     d="m 80,157 h 2 l -1,5 -6,9 h -3 l 1,-5 4,-7 z"
     fill="#fd2435"
     id="path63" />
  <path
     d="m 388,602 h 5 l 1,4 -11,2 -4,-1 v -3 z"
     fill="#fd1d2f"
     id="path64" />
  <path
     d="m 268,600 h 8 l 8,2 -1,4 -8,-1 -6,-2 z"
     fill="#fd1d2f"
     id="path65" />
  <path
     d="m 32,295 h 2 l 2,6 -2,11 -3,-1 v -14 z"
     fill="#fd2132"
     id="path66" />
  <path
     d="m 143,90 2,1 -1,4 -8,6 h -4 l 1,-4 z"
     fill="#fd2132"
     id="path67" />
  <path
     d="m 338,606 h 11 l 1,4 -4,1 h -8 l -2,-1 v -3 z"
     fill="#fd2838"
     id="path68" />
  <path
     d="m 458,583 h 5 v 3 l -5,3 -6,2 -3,-2 v -2 z"
     fill="#fd2435"
     id="path69" />
  <path
     d="m 149,544 7,4 5,5 v 2 l -6,-1 -7,-6 z"
     fill="#fd1729"
     id="path70" />
  <path
     d="m 55,429 4,2 5,9 -1,5 -4,-4 -4,-9 z"
     fill="#fd2132"
     id="path71" />
  <path
     d="m 245,237 3,1 1,2 9,1 v 1 l -20,1 -7,1 3,-3 z"
     fill="#fef3f3"
     id="path72" />
  <path
     d="m 66,178 h 3 l -1,6 -4,8 -3,1 -1,-4 z"
     fill="#fd1d2f"
     id="path73" />
  <path
     d="m 314,27 h 11 v 4 l -5,1 h -7 l -2,-1 1,-3 z"
     fill="#fd3545"
     id="path74" />
  <path
     d="m 227,588 7,1 7,3 v 3 l -9,-1 -6,-4 z"
     fill="#fd1e2f"
     id="path75" />
  <path
     d="m 187,569 5,1 9,6 -3,3 -11,-6 z"
     fill="#fd1a2c"
     id="path76" />
  <path
     d="m 502,563 h 4 l -1,4 -9,5 -4,-2 4,-4 z"
     fill="#fd2535"
     id="path77" />
  <path
     d="m 631,402 3,1 -1,8 -4,7 -2,-1 1,-7 z"
     fill="#fd1e2f"
     id="path78" />
  <path
     d="m 625,216 3,1 4,10 v 4 l -4,-1 -4,-11 z"
     fill="#fd1a2c"
     id="path79" />
  <path
     d="m 179,66 3,1 -2,4 -6,4 h -6 l 3,-5 z"
     fill="#fd1a2c"
     id="path80" />
  <path
     d="m 455,49 7,1 6,3 v 4 l -10,-3 -4,-2 z"
     fill="#fd2535"
     id="path81" />
  <path
     d="m 236,42 h 5 l -1,4 -8,3 h -5 l -1,-3 z"
     fill="#fd2839"
     id="path82" />
  <path
     d="m 295,29 h 9 l -1,4 -9,2 -3,-1 -1,-3 z"
     fill="#fd1e2f"
     id="path83" />
  <path
     d="m 293,603 12,2 v 4 l -12,-1 -2,-1 z"
     fill="#fd2132"
     id="path84" />
  <path
     d="m 419,113 h 22 l -2,2 -3,1 h -20 z"
     fill="#fef3f3"
     id="path85" />
  <path
     d="m 415,36 13,3 -1,4 -8,-1 -5,-2 z"
     fill="#fd1e2f"
     id="path86" />
  <path
     d="m 276,32 h 5 v 4 l -6,2 h -6 v -4 z"
     fill="#fd1e2f"
     id="path87" />
  <path
     d="m 353,27 h 11 l 2,1 v 4 h -10 l -4,-2 z"
     fill="#fd1e2f"
     id="path88" />
  <path
     d="m 644,307 3,3 v 12 l -3,2 -1,-1 v -15 z"
     fill="#fd1a2c"
     id="path89" />
  <path
     d="m 475,57 6,1 8,4 -1,4 -7,-2 -6,-5 z"
     fill="#fd1729"
     id="path90" />
  <path
     d="m 361,605 h 10 l -1,4 -5,1 h -7 v -4 z"
     fill="#fd1a2c"
     id="path91" />
  <path
     d="m 131,531 5,1 6,5 1,4 -5,-1 -7,-6 z"
     fill="#fd2536"
     id="path92" />
  <path
     d="m 588,488 3,1 -2,5 -4,5 -5,2 1,-5 z"
     fill="#fd1e2f"
     id="path93" />
  <path
     d="m 437,42 11,3 1,3 -1,1 -8,-1 -5,-2 v -3 z"
     fill="#fd2536"
     id="path94" />
  <path
     d="m 395,32 9,1 4,2 v 3 h -8 l -6,-3 z"
     fill="#fd1e2f"
     id="path95" />
  <path
     d="m 336,26 9,1 1,3 -2,1 h -11 l -1,-4 z"
     fill="#fd2d3d"
     id="path96" />
  <path
     d="m 313,606 h 14 l 1,4 h -13 z"
     fill="#fd1a2c"
     id="path97" />
  <path
     d="m 208,579 9,3 3,2 v 3 l -7,-1 -7,-4 v -2 z"
     fill="#fd2233"
     id="path98" />
  <path
     d="m 642,285 h 3 l 1,2 1,12 h -4 l -1,-3 z"
     fill="#fd3141"
     id="path99" />
  <path
     d="m 456,183 h 35 l -4,2 -7,1 h -9 v -1 h -14 z"
     fill="#feecee"
     id="path100" />
  <path
     d="m 126,103 h 2 l -1,5 -6,6 h -4 l 1,-4 z"
     fill="#fd1a2c"
     id="path101" />
  <path
     d="m 217,49 h 3 v 4 l -8,4 -4,-1 v -3 z"
     fill="#fd2233"
     id="path102" />
  <path
     d="m 374,29 12,1 1,4 -3,1 -10,-2 -1,-2 z"
     fill="#fd2d3d"
     id="path103" />
  <path
     d="m 540,538 h 3 l -2,5 -6,5 h -5 l 2,-4 z"
     fill="#fd2233"
     id="path104" />
  <path
     d="m 614,447 3,1 -2,5 -5,8 h -2 l 1,-7 z"
     fill="#fd1a2c"
     id="path105" />
  <path
     d="m 644,332 3,1 -1,12 -1,2 -3,-1 v -12 z"
     fill="#fd2a3a"
     id="path106" />
  <path
     d="m 401,123 1,2 h 24 l -1,2 h -23 l -1,2 -1,-4 z"
     fill="#fee9eb"
     id="path107" />
  <path
     d="m 250,594 11,3 v 4 l -8,-1 -5,-3 v -2 z"
     fill="#fd2637"
     id="path108" />
  <path
     d="m 522,551 h 3 l -1,5 -7,4 -5,-1 4,-4 z"
     fill="#fd1729"
     id="path109" />
  <path
     d="m 558,523 2,1 -2,5 -6,5 -4,1 v -4 z"
     fill="#fd2233"
     id="path110" />
  <path
     d="m 603,468 1,4 -7,10 -3,-1 2,-5 5,-7 z"
     fill="#fd1a2c"
     id="path111" />
  <path
     d="m 254,37 h 6 l -1,4 -7,2 h -4 l 1,-4 z"
     fill="#fd1f30"
     id="path112" />
  <path
     d="m 569,507 h 1 v 5 l -7,6 h -3 l 2,-4 5,-6 z"
     fill="#fd2e3f"
     id="path113" />
  <path
     d="m 186,177 h 13 l 8,2 -4,1 -12,-2 v 5 l -1,-2 -4,1 z"
     fill="#fef8f8"
     id="path114" />
  <path
     d="m 608,180 5,2 2,5 -1,4 -3,-3 z"
     fill="#fd2e3e"
     id="path115" />
  <path
     d="m 143,469 h 1 l -1,22 -3,1 2,-16 z"
     fill="#fef3f4"
     id="path116" />
  <path
     d="M 161,556"
     fill="#fee9eb"
     id="path117" />
  <path
     d="M 34,346"
     fill="#fee9eb"
     id="path118" />
  <path
     d="M 607,178"
     fill="#fee9eb"
     id="path119" />
</svg>
