<?xml version="1.0" encoding="UTF-8" standalone="no"?>
<svg
   version="1.1"
   viewBox="0 0 989 114"
   width="989"
   height="114"
   id="svg8"
   sodipodi:docname="koSTITCH Logo 0.8.svg"
   inkscape:version="1.4.3 (0d15f750, 2025-12-25)"
   xmlns:inkscape="http://www.inkscape.org/namespaces/inkscape"
   xmlns:sodipodi="http://sodipodi.sourceforge.net/DTD/sodipodi-0.dtd"
   xmlns="http://www.w3.org/2000/svg"
   xmlns:svg="http://www.w3.org/2000/svg">
  <defs
     id="defs8" />
  <sodipodi:namedview
     id="namedview8"
     pagecolor="#ffffff"
     bordercolor="#000000"
     borderopacity="0.25"
     inkscape:showpageshadow="2"
     inkscape:pageopacity="0.0"
     inkscape:pagecheckerboard="0"
     inkscape:deskcolor="#d1d1d1"
     inkscape:zoom="0.54697552"
     inkscape:cx="562.18238"
     inkscape:cy="13.711765"
     inkscape:window-width="1440"
     inkscape:window-height="900"
     inkscape:window-x="0"
     inkscape:window-y="0"
     inkscape:window-maximized="0"
     inkscape:current-layer="svg8" />
  <path
     d="m 258,0 h 110 l -1,12 -1,7 -1,1 h -91 l -12,3 -4,4 1,7 4,3 17,3 44,6 16,4 9,4 7,6 4,11 v 10 l -3,11 -6,8 -9,6 -9,4 -16,3 H 207 l 2,-17 82,-1 15,-2 7,-3 3,-3 1,-7 -5,-5 -16,-4 -37,-5 -20,-4 -9,-3 -9,-7 -4,-6 -2,-12 2,-10 5,-9 8,-7 11,-5 8,-2 z"
     fill="#f11621"
     id="path1" />
  <path
     d="m 855,0 h 35 l -2,17 -4,26 -1,2 h 65 l 6,-41 1,-4 h 34 l -1,11 -9,57 -7,44 -1,1 h -33 l 1,-12 5,-32 1,-3 h -65 l -2,17 -5,30 h -36 l 12,-77 z"
     fill="#f11621"
     id="path2" />
  <path
     d="m 762,0 h 79 l -2,17 -1,3 -64,1 -13,3 -9,6 -7,9 -4,10 -2,11 v 17 l 4,11 8,5 6,2 7,1 63,1 -2,16 -4,1 h -83 l -15,-4 -9,-5 -7,-7 -4,-8 -2,-7 -1,-15 2,-16 4,-14 7,-13 9,-10 10,-7 12,-5 8,-2 z"
     fill="#f11621"
     id="path3" />
  <path
     d="m 381,0 h 141 l -3,19 h -55 l -3,22 -11,70 -1,2 h -36 l 15,-94 h -49 l 1,-16 z"
     fill="#f11621"
     id="path4" />
  <path
     d="m 580,0 h 134 l -2,19 h -51 l -2,17 -12,73 -1,4 h -35 l 4,-27 10,-62 1,-5 h -48 l 1,-12 z"
     fill="#f11621"
     id="path5" />
  <path
     d="M 17,11 H 44 L 35,65 34,73 49,60 71,42 h 32 v 2 L 89,54 73,67 61,76 v 2 l 8,7 7,7 8,7 7,7 7,6 v 1 H 66 l -24,-24 -7,-8 -2,-2 -6,33 -1,1 H 0 L 9,57 16,15 Z"
     fill="#f11621"
     id="path6" />
  <path
     d="m 137,41 h 34 l 13,3 9,6 5,6 3,7 v 19 l -3,10 -8,11 -9,6 -12,4 -5,1 h -36 l -13,-3 -10,-6 -6,-8 -2,-5 -1,-11 2,-12 6,-12 7,-7 12,-6 z m 9,14 -11,3 -7,5 -5,10 -1,5 v 8 l 3,7 5,4 6,2 h 20 l 10,-4 8,-9 2,-7 V 68 l -4,-8 -9,-4 -7,-1 z"
     fill="#f11621"
     id="path7" />
  <path
     d="m 535,0 h 33 l -1,12 -15,93 -1,7 -1,1 h -33 l 1,-12 16,-100 z"
     fill="#f11621"
     id="path8" />
</svg>
