<?xml version="1.0" encoding="UTF-8" standalone="no"?>
<svg
   version="1.1"
   viewBox="0 0 1080 264.82759"
   width="939.60004"
   height="230.40001"
   id="svg29"
   sodipodi:docname="koSTITCH Logo 0.7.svg"
   inkscape:version="1.4.3 (0d15f750, 2025-12-25)"
   xmlns:inkscape="http://www.inkscape.org/namespaces/inkscape"
   xmlns:sodipodi="http://sodipodi.sourceforge.net/DTD/sodipodi-0.dtd"
   xmlns="http://www.w3.org/2000/svg"
   xmlns:svg="http://www.w3.org/2000/svg">
  <defs
     id="defs29" />
  <sodipodi:namedview
     id="namedview29"
     pagecolor="#ffffff"
     bordercolor="#000000"
     borderopacity="0.25"
     inkscape:showpageshadow="2"
     inkscape:pageopacity="0.0"
     inkscape:pagecheckerboard="0"
     inkscape:deskcolor="#d1d1d1"
     showguides="true"
     inkscape:zoom="0.4883537"
     inkscape:cx="517.04328"
     inkscape:cy="201.69807"
     inkscape:window-width="1288"
     inkscape:window-height="796"
     inkscape:window-x="0"
     inkscape:window-y="0"
     inkscape:window-maximized="0"
     inkscape:current-layer="svg29" />
  <path
     d="m 61,31 h 8 l 2,5 v 5 l 14,1 38,12 12,2 h 20 l 44,-4 40,-4 47,-3 h 48 l 11,4 6,7 2,7 v 19 h 8 l 2,2 1,37 -2,3 h -14 v 102 l -1,1 H 184 l -138,1 -35,1 1,2 h 349 l 1,-2 -10,-3 2,-10 2,-1 13,8 4,7 v 26 H 1 l -1,-1 1,-23 4,-7 9,-8 12,-8 12,-3 h 87 l 89,1 h 21 l -2,4 -8,6 5,-1 10,-6 7,-7 8,-13 5,-12 3,-19 -7,16 -8,11 -8,9 -9,7 -4,-1 8,-16 6,-18 2,-11 v -20 l -3,-10 -8,-7 -6,-2 -10,-1 -79,-3 h -19 l -9,3 -6,5 -6,12 -6,19 -4,5 -5,2 H 53 l -9,-2 -6,-5 -4,-9 -4,-24 -2,-24 V 58 l 4,-11 5,-4 6,-2 h 15 v -7 z m -5,17 -4,2 -1,14 v 21 l 1,25 2,16 3,16 2,2 V 49 Z m 15,1 v 35 l 1,59 h 2 l 1,-5 1,-23 V 96 l 1,-32 3,-3 6,1 20,8 12,2 h 20 l 129,-11 40,-3 4,-2 -1,-1 h -21 l -50,3 -76,6 -23,1 -20,-2 -15,-5 -15,-6 -8,-2 z m 236,19 -10,4 -7,8 -2,6 v 9 l 3,7 5,6 8,4 h 13 l 8,-4 6,-8 2,-11 -3,-11 -7,-7 -9,-3 z m -226,25 -4,4 -1,5 2,7 3,2 h 6 l 5,-4 1,-7 -3,-5 -4,-2 z m 34,4 -10,3 -1,2 13,-1 h 121 l 14,2 6,4 5,8 2,13 v 47 l -3,23 -3,12 v 5 l 2,2 7,1 6,-3 3,-8 1,-22 -2,-47 -2,-19 -3,-9 -7,-8 -10,-4 -13,-1 z m -48,115 -6,3 1,3 h 23 l 26,-2 7,-1 v -2 l -24,-1 z"
     fill="#f51423"
     id="path1" />
  <path
     d="m 951,91 h 26 v 8 l -4,25 h 41 l 3,-25 1,-7 1,-1 h 25 v 8 l -11,79 h -26 v -9 l 4,-28 h -41 l -1,13 -3,22 -1,2 h -26 l 1,-13 10,-69 z"
     fill="#f51423"
     id="path2" />
  <path
     d="m 564,91 h 66 v 10 l -1,7 h -59 l -7,3 -1,4 6,4 16,3 23,4 12,4 8,6 4,7 1,4 v 7 l -3,8 -5,7 -14,7 -9,2 h -67 v -9 l 1,-6 h 37 l 23,-1 6,-3 1,-1 v -7 l -3,-3 -45,-9 -10,-4 -7,-6 -3,-7 v -9 l 3,-7 7,-8 7,-4 z"
     fill="#f51423"
     id="path3" />
  <path
     d="m 893,91 h 50 v 9 l -1,8 h -43 l -11,4 -6,5 -5,10 -1,5 v 17 l 3,8 6,4 11,2 h 34 l -1,15 -21,1 h -26 l -12,-2 -10,-4 -8,-8 -4,-9 -1,-5 v -15 l 3,-14 6,-11 9,-10 8,-5 13,-4 z"
     fill="#f51423"
     id="path4" />
  <path
     d="m 639,91 h 87 l -1,16 -1,1 h -32 l -1,14 -7,52 -1,4 h -26 l 1,-13 8,-57 h -29 z"
     fill="#f51423"
     id="path5" />
  <path
     d="m 768,91 h 88 l -1,13 -1,4 h -32 l -5,39 -4,29 -1,2 h -25 l 1,-12 8,-57 -29,-1 z"
     fill="#f51423"
     id="path6" />
  <path
     d="m 397,97 h 21 l -1,12 -4,27 v 5 l 19,-13 7,-5 h 23 l -4,4 -25,17 -3,2 2,4 12,13 14,14 v 1 h -24 l -18,-18 -6,-7 -4,24 -1,1 h -20 l 1,-10 10,-68 z"
     fill="#f51423"
     id="path7" />
  <path
     d="m 495,121 16,2 10,5 7,8 2,7 v 11 l -4,11 -8,8 -8,4 -8,2 h -23 l -12,-4 -8,-7 -4,-9 v -15 l 5,-10 8,-7 9,-4 z m -7,14 -8,3 -4,5 -2,7 1,8 5,6 5,2 h 12 l 7,-3 5,-6 1,-3 v -9 l -4,-6 -4,-3 -4,-1 z"
     fill="#f51423"
     id="path8" />
  <path
     d="m 734,91 h 25 l 1,3 -11,80 -1,4 h -27 l 7,-51 5,-35 z"
     fill="#f51423"
     id="path9" />
  <path
     d="m 247,0 h 17 l 6,1 v 5 l -3,1 v 31 l -3,2 h -21 l -1,-1 -1,-26 -4,-7 1,-4 z m -6,7 -1,2 3,-1 z m 4,0 m 5,0 v 1 h 15 V 7 Z"
     fill="#f51423"
     id="path10" />
  <path
     d="m 323,5 8,1 5,3 3,7 v 22 l -1,1 h -12 l -1,-23 -3,-1 -1,6 -1,17 -1,1 h -19 l 1,-9 5,-13 4,-6 5,-4 z"
     fill="#f51423"
     id="path11" />
  <path
     d="m 308,77 8,1 5,3 3,4 v 11 l -3,5 -4,3 -3,1 h -7 l -6,-3 -4,-5 -1,-9 3,-6 5,-4 z"
     fill="#f51423"
     id="path12" />
  <path
     d="m 232,31 4,1 -2,4 -28,8 -25,5 -16,2 -26,1 -16,-2 -7,-2 4,-1 22,1 26,-2 18,-3 23,-5 z"
     fill="#f51423"
     id="path13" />
  <path
     d="m 436,201 8,1 2,4 -2,3 h -31 l -39,-3 v -3 l 14,-1 z"
     fill="#f51423"
     id="path14" />
  <path
     d="m 57,161 h 15 l 1,1 v 10 l -2,2 -4,1 -1,25 -2,1 -1,-2 -2,-24 -5,-2 v -11 z"
     fill="#f51423"
     id="path15" />
  <path
     d="m 678,201 h 33 l 3,3 -1,4 -1,1 h -34 l -2,-2 1,-5 z"
     fill="#f51423"
     id="path16" />
  <path
     d="m 456,201 h 32 l 2,2 v 5 l -1,1 h -33 l -2,-2 1,-5 z"
     fill="#f51423"
     id="path17" />
  <path
     d="m 632,201 h 31 l 3,2 v 5 l -1,1 h -33 l -2,-2 1,-5 z"
     fill="#f51423"
     id="path18" />
  <path
     d="m 725,201 h 31 l 3,3 -1,4 -1,1 h -33 l -1,-1 v -6 z"
     fill="#f51423"
     id="path19" />
  <path
     d="m 587,201 h 31 l 3,2 -1,5 -1,1 h -32 l -2,-2 1,-5 z"
     fill="#f51423"
     id="path20" />
  <path
     d="m 543,201 h 31 l 3,2 -1,5 -1,1 h -32 l -2,-2 1,-5 z"
     fill="#f51423"
     id="path21" />
  <path
     d="m 897,201 h 30 l 3,3 -1,4 -1,1 h -32 l -2,-2 1,-5 z"
     fill="#f51423"
     id="path22" />
  <path
     d="m 812,201 h 30 l 3,3 -1,4 -1,1 h -32 l -1,-6 z"
     fill="#f51423"
     id="path23" />
  <path
     d="m 501,201 h 30 l 2,2 v 5 l -1,1 h -31 l -2,-2 1,-5 z"
     fill="#f51423"
     id="path24" />
  <path
     d="m 770,201 h 29 l 3,2 -1,6 h -31 l -2,-2 1,-5 z"
     fill="#f51423"
     id="path25" />
  <path
     d="m 940,201 h 29 l 3,2 -1,5 -1,1 h -30 l -2,-2 1,-5 z"
     fill="#f51423"
     id="path26" />
  <path
     d="m 983,201 h 29 l 3,3 -1,4 -2,1 h -29 l -2,-1 v -5 z"
     fill="#f51423"
     id="path27" />
  <path
     d="m 855,201 h 29 l 3,3 -1,4 -1,1 h -30 l -2,-2 1,-5 z"
     fill="#f51423"
     id="path28" />
  <path
     d="m 293,25 h 7 l 1,2 -19,3 -8,2 h -4 v -2 l 16,-4 z"
     fill="#f51423"
     id="path29" />
</svg>
